<mxfile host="app.diagrams.net" modified="2020-10-13T16:30:12.380Z" agent="5.0 (Macintosh; Intel Mac OS X 10_15_7) AppleWebKit/605.1.15 (KHTML, like Gecko) Version/14.0 Safari/605.1.15" etag="o_8B38wa8YJvlkjsKivw" version="13.7.8" type="github">
  <diagram id="knqtB_onDpYx3FrmZuYA" name="Page-1">
    <mxGraphModel dx="940" dy="568" grid="1" gridSize="10" guides="1" tooltips="1" connect="1" arrows="1" fold="1" page="1" pageScale="1" pageWidth="827" pageHeight="1169" math="0" shadow="0">
      <root>
        <mxCell id="0" />
        <mxCell id="1" parent="0" />
        <mxCell id="081VUppRDwUBQJAedWKf-49" style="edgeStyle=none;rounded=0;orthogonalLoop=1;jettySize=auto;html=1;startArrow=none;startFill=0;endArrow=none;endFill=0;targetPerimeterSpacing=0;strokeColor=#000000;" edge="1" parent="1" source="081VUppRDwUBQJAedWKf-1">
          <mxGeometry relative="1" as="geometry">
            <mxPoint x="125" y="440" as="targetPoint" />
            <Array as="points">
              <mxPoint x="125" y="440" />
            </Array>
          </mxGeometry>
        </mxCell>
        <mxCell id="081VUppRDwUBQJAedWKf-1" value="Adresse" style="swimlane;fontStyle=1;childLayout=stackLayout;horizontal=1;startSize=26;fillColor=#fff2cc;horizontalStack=0;resizeParent=1;resizeParentMax=0;resizeLast=0;collapsible=1;marginBottom=0;strokeColor=#d6b656;" vertex="1" parent="1">
          <mxGeometry x="50" y="500" width="150" height="172" as="geometry" />
        </mxCell>
        <mxCell id="081VUppRDwUBQJAedWKf-2" value="+ numero: String" style="text;strokeColor=none;fillColor=none;align=left;verticalAlign=top;spacingLeft=4;spacingRight=4;overflow=hidden;rotatable=0;points=[[0,0.5],[1,0.5]];portConstraint=eastwest;" vertex="1" parent="081VUppRDwUBQJAedWKf-1">
          <mxGeometry y="26" width="150" height="24" as="geometry" />
        </mxCell>
        <mxCell id="081VUppRDwUBQJAedWKf-3" value="+ rue: String" style="text;strokeColor=none;fillColor=none;align=left;verticalAlign=top;spacingLeft=4;spacingRight=4;overflow=hidden;rotatable=0;points=[[0,0.5],[1,0.5]];portConstraint=eastwest;" vertex="1" parent="081VUppRDwUBQJAedWKf-1">
          <mxGeometry y="50" width="150" height="26" as="geometry" />
        </mxCell>
        <mxCell id="081VUppRDwUBQJAedWKf-4" value="+ codePostal: String" style="text;strokeColor=none;fillColor=none;align=left;verticalAlign=top;spacingLeft=4;spacingRight=4;overflow=hidden;rotatable=0;points=[[0,0.5],[1,0.5]];portConstraint=eastwest;" vertex="1" parent="081VUppRDwUBQJAedWKf-1">
          <mxGeometry y="76" width="150" height="32" as="geometry" />
        </mxCell>
        <mxCell id="081VUppRDwUBQJAedWKf-5" value="+ ville: String" style="text;strokeColor=none;fillColor=none;align=left;verticalAlign=top;spacingLeft=4;spacingRight=4;overflow=hidden;rotatable=0;points=[[0,0.5],[1,0.5]];portConstraint=eastwest;" vertex="1" parent="081VUppRDwUBQJAedWKf-1">
          <mxGeometry y="108" width="150" height="32" as="geometry" />
        </mxCell>
        <mxCell id="081VUppRDwUBQJAedWKf-7" value="+ pays: String" style="text;strokeColor=none;fillColor=none;align=left;verticalAlign=top;spacingLeft=4;spacingRight=4;overflow=hidden;rotatable=0;points=[[0,0.5],[1,0.5]];portConstraint=eastwest;" vertex="1" parent="081VUppRDwUBQJAedWKf-1">
          <mxGeometry y="140" width="150" height="32" as="geometry" />
        </mxCell>
        <mxCell id="SpdqRZm_7HGaeXkHbd29-8" value="Acheteur" style="swimlane;fontStyle=1;childLayout=stackLayout;horizontal=1;startSize=26;fillColor=#fff2cc;horizontalStack=0;resizeParent=1;resizeParentMax=0;resizeLast=0;collapsible=1;marginBottom=0;strokeColor=#d6b656;" parent="1" vertex="1">
          <mxGeometry x="140" y="130" width="150" height="174" as="geometry" />
        </mxCell>
        <mxCell id="SpdqRZm_7HGaeXkHbd29-9" value="+ nom: String" style="text;strokeColor=none;fillColor=none;align=left;verticalAlign=top;spacingLeft=4;spacingRight=4;overflow=hidden;rotatable=0;points=[[0,0.5],[1,0.5]];portConstraint=eastwest;" parent="SpdqRZm_7HGaeXkHbd29-8" vertex="1">
          <mxGeometry y="26" width="150" height="26" as="geometry" />
        </mxCell>
        <mxCell id="SpdqRZm_7HGaeXkHbd29-10" value="+ prénom: String" style="text;strokeColor=none;fillColor=none;align=left;verticalAlign=top;spacingLeft=4;spacingRight=4;overflow=hidden;rotatable=0;points=[[0,0.5],[1,0.5]];portConstraint=eastwest;" parent="SpdqRZm_7HGaeXkHbd29-8" vertex="1">
          <mxGeometry y="52" width="150" height="26" as="geometry" />
        </mxCell>
        <mxCell id="SpdqRZm_7HGaeXkHbd29-11" value="+ genre: String" style="text;strokeColor=none;fillColor=none;align=left;verticalAlign=top;spacingLeft=4;spacingRight=4;overflow=hidden;rotatable=0;points=[[0,0.5],[1,0.5]];portConstraint=eastwest;" parent="SpdqRZm_7HGaeXkHbd29-8" vertex="1">
          <mxGeometry y="78" width="150" height="32" as="geometry" />
        </mxCell>
        <mxCell id="SpdqRZm_7HGaeXkHbd29-12" value="+ modeDePayment: string" style="text;strokeColor=none;fillColor=none;align=left;verticalAlign=top;spacingLeft=4;spacingRight=4;overflow=hidden;rotatable=0;points=[[0,0.5],[1,0.5]];portConstraint=eastwest;" parent="SpdqRZm_7HGaeXkHbd29-8" vertex="1">
          <mxGeometry y="110" width="150" height="32" as="geometry" />
        </mxCell>
        <mxCell id="SpdqRZm_7HGaeXkHbd29-13" value="+ email: String" style="text;strokeColor=none;fillColor=none;align=left;verticalAlign=top;spacingLeft=4;spacingRight=4;overflow=hidden;rotatable=0;points=[[0,0.5],[1,0.5]];portConstraint=eastwest;" parent="SpdqRZm_7HGaeXkHbd29-8" vertex="1">
          <mxGeometry y="142" width="150" height="32" as="geometry" />
        </mxCell>
        <mxCell id="SpdqRZm_7HGaeXkHbd29-2" value="Commande" style="swimlane;fontStyle=1;childLayout=stackLayout;horizontal=1;startSize=26;fillColor=#fff2cc;horizontalStack=0;resizeParent=1;resizeParentMax=0;resizeLast=0;collapsible=1;marginBottom=0;strokeColor=#d6b656;" parent="1" vertex="1">
          <mxGeometry x="420" y="130" width="150" height="174" as="geometry" />
        </mxCell>
        <mxCell id="SpdqRZm_7HGaeXkHbd29-3" value="+ numero: Integer" style="text;strokeColor=none;fillColor=none;align=left;verticalAlign=top;spacingLeft=4;spacingRight=4;overflow=hidden;rotatable=0;points=[[0,0.5],[1,0.5]];portConstraint=eastwest;" parent="SpdqRZm_7HGaeXkHbd29-2" vertex="1">
          <mxGeometry y="26" width="150" height="26" as="geometry" />
        </mxCell>
        <mxCell id="SpdqRZm_7HGaeXkHbd29-4" value="+ date: Date" style="text;strokeColor=none;fillColor=none;align=left;verticalAlign=top;spacingLeft=4;spacingRight=4;overflow=hidden;rotatable=0;points=[[0,0.5],[1,0.5]];portConstraint=eastwest;" parent="SpdqRZm_7HGaeXkHbd29-2" vertex="1">
          <mxGeometry y="52" width="150" height="26" as="geometry" />
        </mxCell>
        <mxCell id="SpdqRZm_7HGaeXkHbd29-5" value="+ heure: heure" style="text;strokeColor=none;fillColor=none;align=left;verticalAlign=top;spacingLeft=4;spacingRight=4;overflow=hidden;rotatable=0;points=[[0,0.5],[1,0.5]];portConstraint=eastwest;" parent="SpdqRZm_7HGaeXkHbd29-2" vertex="1">
          <mxGeometry y="78" width="150" height="32" as="geometry" />
        </mxCell>
        <mxCell id="SpdqRZm_7HGaeXkHbd29-6" value="+ modeDePayment: string" style="text;strokeColor=none;fillColor=none;align=left;verticalAlign=top;spacingLeft=4;spacingRight=4;overflow=hidden;rotatable=0;points=[[0,0.5],[1,0.5]];portConstraint=eastwest;" parent="SpdqRZm_7HGaeXkHbd29-2" vertex="1">
          <mxGeometry y="110" width="150" height="32" as="geometry" />
        </mxCell>
        <mxCell id="SpdqRZm_7HGaeXkHbd29-7" value="+PaymentAccepté: Boolean" style="text;strokeColor=none;fillColor=none;align=left;verticalAlign=top;spacingLeft=4;spacingRight=4;overflow=hidden;rotatable=0;points=[[0,0.5],[1,0.5]];portConstraint=eastwest;" parent="SpdqRZm_7HGaeXkHbd29-2" vertex="1">
          <mxGeometry y="142" width="150" height="32" as="geometry" />
        </mxCell>
        <mxCell id="081VUppRDwUBQJAedWKf-26" style="edgeStyle=none;rounded=0;orthogonalLoop=1;jettySize=auto;html=1;exitX=1;exitY=0.5;exitDx=0;exitDy=0;strokeColor=#000000;startArrow=none;startFill=0;targetPerimeterSpacing=0;endArrow=none;endFill=0;" edge="1" parent="1" source="SpdqRZm_7HGaeXkHbd29-11" target="SpdqRZm_7HGaeXkHbd29-5">
          <mxGeometry relative="1" as="geometry" />
        </mxCell>
        <mxCell id="081VUppRDwUBQJAedWKf-27" value="0...*" style="text;html=1;align=center;verticalAlign=middle;resizable=0;points=[];autosize=1;" vertex="1" parent="1">
          <mxGeometry x="290" y="230" width="40" height="20" as="geometry" />
        </mxCell>
        <mxCell id="081VUppRDwUBQJAedWKf-28" value="0...*" style="text;html=1;align=center;verticalAlign=middle;resizable=0;points=[];autosize=1;" vertex="1" parent="1">
          <mxGeometry x="374" y="230" width="40" height="20" as="geometry" />
        </mxCell>
        <mxCell id="081VUppRDwUBQJAedWKf-29" style="edgeStyle=none;rounded=0;orthogonalLoop=1;jettySize=auto;html=1;exitX=1;exitY=0.5;exitDx=0;exitDy=0;strokeColor=#000000;startArrow=none;startFill=0;targetPerimeterSpacing=0;endArrow=none;endFill=0;entryX=0.02;entryY=-0.115;entryDx=0;entryDy=0;entryPerimeter=0;" edge="1" parent="1" target="081VUppRDwUBQJAedWKf-23">
          <mxGeometry relative="1" as="geometry">
            <mxPoint x="570" y="260" as="sourcePoint" />
            <mxPoint x="647" y="260" as="targetPoint" />
          </mxGeometry>
        </mxCell>
        <mxCell id="081VUppRDwUBQJAedWKf-30" value="0...*" style="text;html=1;align=center;verticalAlign=middle;resizable=0;points=[];autosize=1;" vertex="1" parent="1">
          <mxGeometry x="570" y="240" width="40" height="20" as="geometry" />
        </mxCell>
        <mxCell id="081VUppRDwUBQJAedWKf-31" value="1...*" style="text;html=1;align=center;verticalAlign=middle;resizable=0;points=[];autosize=1;" vertex="1" parent="1">
          <mxGeometry x="630" y="240" width="40" height="20" as="geometry" />
        </mxCell>
        <mxCell id="081VUppRDwUBQJAedWKf-21" value="Pizza" style="swimlane;fontStyle=1;childLayout=stackLayout;horizontal=1;startSize=26;fillColor=#fff2cc;horizontalStack=0;resizeParent=1;resizeParentMax=0;resizeLast=0;collapsible=1;marginBottom=0;strokeColor=#d6b656;" vertex="1" parent="1">
          <mxGeometry x="670" y="211" width="150" height="78" as="geometry" />
        </mxCell>
        <mxCell id="081VUppRDwUBQJAedWKf-22" value="+ nom: String" style="text;strokeColor=none;fillColor=none;align=left;verticalAlign=top;spacingLeft=4;spacingRight=4;overflow=hidden;rotatable=0;points=[[0,0.5],[1,0.5]];portConstraint=eastwest;" vertex="1" parent="081VUppRDwUBQJAedWKf-21">
          <mxGeometry y="26" width="150" height="26" as="geometry" />
        </mxCell>
        <mxCell id="081VUppRDwUBQJAedWKf-23" value="+ taille: String" style="text;strokeColor=none;fillColor=none;align=left;verticalAlign=top;spacingLeft=4;spacingRight=4;overflow=hidden;rotatable=0;points=[[0,0.5],[1,0.5]];portConstraint=eastwest;" vertex="1" parent="081VUppRDwUBQJAedWKf-21">
          <mxGeometry y="52" width="150" height="26" as="geometry" />
        </mxCell>
        <mxCell id="081VUppRDwUBQJAedWKf-33" style="edgeStyle=none;rounded=0;orthogonalLoop=1;jettySize=auto;html=1;exitX=0.467;exitY=1.154;exitDx=0;exitDy=0;strokeColor=#000000;startArrow=none;startFill=0;targetPerimeterSpacing=0;endArrow=none;endFill=0;exitPerimeter=0;" edge="1" parent="1" source="081VUppRDwUBQJAedWKf-23">
          <mxGeometry relative="1" as="geometry">
            <mxPoint x="580" y="270" as="sourcePoint" />
            <mxPoint x="740" y="480" as="targetPoint" />
          </mxGeometry>
        </mxCell>
        <mxCell id="081VUppRDwUBQJAedWKf-34" value="1...*" style="text;html=1;align=center;verticalAlign=middle;resizable=0;points=[];autosize=1;" vertex="1" parent="1">
          <mxGeometry x="740" y="289" width="40" height="20" as="geometry" />
        </mxCell>
        <mxCell id="081VUppRDwUBQJAedWKf-35" value="3...*" style="text;html=1;align=center;verticalAlign=middle;resizable=0;points=[];autosize=1;" vertex="1" parent="1">
          <mxGeometry x="740" y="460" width="40" height="20" as="geometry" />
        </mxCell>
        <mxCell id="081VUppRDwUBQJAedWKf-36" style="edgeStyle=none;rounded=0;orthogonalLoop=1;jettySize=auto;html=1;strokeColor=#000000;startArrow=none;startFill=0;targetPerimeterSpacing=0;endArrow=none;endFill=0;entryX=0;entryY=0.5;entryDx=0;entryDy=0;" edge="1" parent="1" target="081VUppRDwUBQJAedWKf-13">
          <mxGeometry relative="1" as="geometry">
            <mxPoint x="417" y="525" as="sourcePoint" />
            <mxPoint x="670" y="530.01" as="targetPoint" />
          </mxGeometry>
        </mxCell>
        <mxCell id="081VUppRDwUBQJAedWKf-37" style="edgeStyle=none;rounded=0;orthogonalLoop=1;jettySize=auto;html=1;startArrow=none;startFill=0;endArrow=none;endFill=0;targetPerimeterSpacing=0;strokeColor=#000000;dashed=1;" edge="1" parent="1" source="081VUppRDwUBQJAedWKf-8">
          <mxGeometry relative="1" as="geometry">
            <mxPoint x="525" y="530" as="targetPoint" />
          </mxGeometry>
        </mxCell>
        <mxCell id="081VUppRDwUBQJAedWKf-8" value="Stock" style="swimlane;fontStyle=1;align=center;verticalAlign=top;childLayout=stackLayout;horizontal=1;startSize=26;horizontalStack=0;resizeParent=1;resizeParentMax=0;resizeLast=0;collapsible=1;marginBottom=0;fillColor=#fff2cc;strokeColor=#d6b656;" vertex="1" parent="1">
          <mxGeometry x="450" y="570" width="150" height="60" as="geometry" />
        </mxCell>
        <mxCell id="081VUppRDwUBQJAedWKf-9" value="+ quantité: Integer" style="text;strokeColor=none;fillColor=none;align=left;verticalAlign=top;spacingLeft=4;spacingRight=4;overflow=hidden;rotatable=0;points=[[0,0.5],[1,0.5]];portConstraint=eastwest;" vertex="1" parent="081VUppRDwUBQJAedWKf-8">
          <mxGeometry y="26" width="150" height="26" as="geometry" />
        </mxCell>
        <mxCell id="081VUppRDwUBQJAedWKf-10" value="" style="line;strokeWidth=1;fillColor=none;align=left;verticalAlign=middle;spacingTop=-1;spacingLeft=3;spacingRight=3;rotatable=0;labelPosition=right;points=[];portConstraint=eastwest;" vertex="1" parent="081VUppRDwUBQJAedWKf-8">
          <mxGeometry y="52" width="150" height="8" as="geometry" />
        </mxCell>
        <mxCell id="081VUppRDwUBQJAedWKf-38" style="edgeStyle=none;rounded=0;orthogonalLoop=1;jettySize=auto;html=1;strokeColor=#000000;startArrow=none;startFill=0;targetPerimeterSpacing=0;endArrow=none;endFill=0;exitX=0.467;exitY=1;exitDx=0;exitDy=0;exitPerimeter=0;" edge="1" parent="1" source="081VUppRDwUBQJAedWKf-14">
          <mxGeometry relative="1" as="geometry">
            <mxPoint x="740" y="560" as="sourcePoint" />
            <mxPoint x="330" y="680" as="targetPoint" />
            <Array as="points">
              <mxPoint x="740" y="680" />
            </Array>
          </mxGeometry>
        </mxCell>
        <mxCell id="081VUppRDwUBQJAedWKf-39" style="edgeStyle=none;rounded=0;orthogonalLoop=1;jettySize=auto;html=1;exitX=0.447;exitY=1.083;exitDx=0;exitDy=0;strokeColor=#000000;startArrow=none;startFill=0;targetPerimeterSpacing=0;endArrow=none;endFill=0;exitPerimeter=0;" edge="1" parent="1" source="SpdqRZm_7HGaeXkHbd29-15">
          <mxGeometry relative="1" as="geometry">
            <mxPoint x="330" y="590.0039999999999" as="sourcePoint" />
            <mxPoint x="330" y="680" as="targetPoint" />
            <Array as="points">
              <mxPoint x="330" y="680" />
            </Array>
          </mxGeometry>
        </mxCell>
        <mxCell id="081VUppRDwUBQJAedWKf-11" value="Ingredient" style="swimlane;fontStyle=1;childLayout=stackLayout;horizontal=1;startSize=26;fillColor=#fff2cc;horizontalStack=0;resizeParent=1;resizeParentMax=0;resizeLast=0;collapsible=1;marginBottom=0;strokeColor=#d6b656;" vertex="1" parent="1">
          <mxGeometry x="670" y="460" width="150" height="110" as="geometry" />
        </mxCell>
        <mxCell id="081VUppRDwUBQJAedWKf-12" value="+ nom" style="text;strokeColor=none;fillColor=none;align=left;verticalAlign=top;spacingLeft=4;spacingRight=4;overflow=hidden;rotatable=0;points=[[0,0.5],[1,0.5]];portConstraint=eastwest;" vertex="1" parent="081VUppRDwUBQJAedWKf-11">
          <mxGeometry y="26" width="150" height="26" as="geometry" />
        </mxCell>
        <mxCell id="081VUppRDwUBQJAedWKf-13" value="+ quantité: Integer" style="text;strokeColor=none;fillColor=none;align=left;verticalAlign=top;spacingLeft=4;spacingRight=4;overflow=hidden;rotatable=0;points=[[0,0.5],[1,0.5]];portConstraint=eastwest;" vertex="1" parent="081VUppRDwUBQJAedWKf-11">
          <mxGeometry y="52" width="150" height="26" as="geometry" />
        </mxCell>
        <mxCell id="081VUppRDwUBQJAedWKf-14" value="+ prix" style="text;strokeColor=none;fillColor=none;align=left;verticalAlign=top;spacingLeft=4;spacingRight=4;overflow=hidden;rotatable=0;points=[[0,0.5],[1,0.5]];portConstraint=eastwest;" vertex="1" parent="081VUppRDwUBQJAedWKf-11">
          <mxGeometry y="78" width="150" height="32" as="geometry" />
        </mxCell>
        <mxCell id="081VUppRDwUBQJAedWKf-54" style="edgeStyle=none;rounded=0;orthogonalLoop=1;jettySize=auto;html=1;startArrow=diamond;startFill=1;endArrow=none;endFill=0;targetPerimeterSpacing=0;strokeColor=#000000;" edge="1" parent="1" source="SpdqRZm_7HGaeXkHbd29-14">
          <mxGeometry relative="1" as="geometry">
            <mxPoint x="339" y="380" as="targetPoint" />
          </mxGeometry>
        </mxCell>
        <mxCell id="SpdqRZm_7HGaeXkHbd29-14" value="PointDeVente" style="swimlane;fontStyle=1;align=center;verticalAlign=top;childLayout=stackLayout;horizontal=1;startSize=26;horizontalStack=0;resizeParent=1;resizeParentMax=0;resizeLast=0;collapsible=1;marginBottom=0;fillColor=#fff2cc;strokeColor=#d6b656;" parent="1" vertex="1">
          <mxGeometry x="264" y="499" width="150" height="50" as="geometry" />
        </mxCell>
        <mxCell id="SpdqRZm_7HGaeXkHbd29-15" value="+ nom: String" style="text;strokeColor=none;fillColor=none;align=left;verticalAlign=top;spacingLeft=4;spacingRight=4;overflow=hidden;rotatable=0;points=[[0,0.5],[1,0.5]];portConstraint=eastwest;" parent="SpdqRZm_7HGaeXkHbd29-14" vertex="1">
          <mxGeometry y="26" width="150" height="24" as="geometry" />
        </mxCell>
        <mxCell id="081VUppRDwUBQJAedWKf-41" style="edgeStyle=none;rounded=0;orthogonalLoop=1;jettySize=auto;html=1;exitX=0;exitY=0.5;exitDx=0;exitDy=0;entryX=1;entryY=0.5;entryDx=0;entryDy=0;startArrow=none;startFill=0;endArrow=none;endFill=0;targetPerimeterSpacing=0;strokeColor=#000000;" edge="1" parent="1" source="SpdqRZm_7HGaeXkHbd29-15" target="081VUppRDwUBQJAedWKf-2">
          <mxGeometry relative="1" as="geometry" />
        </mxCell>
        <mxCell id="081VUppRDwUBQJAedWKf-42" value="0...*" style="text;html=1;align=center;verticalAlign=middle;resizable=0;points=[];autosize=1;" vertex="1" parent="1">
          <mxGeometry x="290" y="550" width="40" height="20" as="geometry" />
        </mxCell>
        <mxCell id="081VUppRDwUBQJAedWKf-43" value="0...*" style="text;html=1;align=center;verticalAlign=middle;resizable=0;points=[];autosize=1;" vertex="1" parent="1">
          <mxGeometry x="740" y="570" width="40" height="20" as="geometry" />
        </mxCell>
        <mxCell id="081VUppRDwUBQJAedWKf-44" value="0...*" style="text;html=1;align=center;verticalAlign=middle;resizable=0;points=[];autosize=1;" vertex="1" parent="1">
          <mxGeometry x="414" y="529" width="40" height="20" as="geometry" />
        </mxCell>
        <mxCell id="081VUppRDwUBQJAedWKf-45" value="0...*" style="text;html=1;align=center;verticalAlign=middle;resizable=0;points=[];autosize=1;" vertex="1" parent="1">
          <mxGeometry x="630" y="499" width="40" height="20" as="geometry" />
        </mxCell>
        <mxCell id="081VUppRDwUBQJAedWKf-46" value="1" style="text;html=1;align=center;verticalAlign=middle;resizable=0;points=[];autosize=1;" vertex="1" parent="1">
          <mxGeometry x="200" y="514" width="20" height="20" as="geometry" />
        </mxCell>
        <mxCell id="081VUppRDwUBQJAedWKf-47" value="1" style="text;html=1;align=center;verticalAlign=middle;resizable=0;points=[];autosize=1;" vertex="1" parent="1">
          <mxGeometry x="240" y="514" width="20" height="20" as="geometry" />
        </mxCell>
        <mxCell id="081VUppRDwUBQJAedWKf-48" style="edgeStyle=none;rounded=0;orthogonalLoop=1;jettySize=auto;html=1;startArrow=none;startFill=0;endArrow=none;endFill=0;targetPerimeterSpacing=0;strokeColor=#000000;exitX=0.207;exitY=1.063;exitDx=0;exitDy=0;exitPerimeter=0;" edge="1" parent="1" source="SpdqRZm_7HGaeXkHbd29-7">
          <mxGeometry relative="1" as="geometry">
            <mxPoint x="451" y="440" as="targetPoint" />
          </mxGeometry>
        </mxCell>
        <mxCell id="081VUppRDwUBQJAedWKf-50" style="edgeStyle=none;rounded=0;orthogonalLoop=1;jettySize=auto;html=1;strokeColor=#000000;startArrow=none;startFill=0;targetPerimeterSpacing=0;endArrow=none;endFill=0;" edge="1" parent="1">
          <mxGeometry relative="1" as="geometry">
            <mxPoint x="126" y="440" as="sourcePoint" />
            <mxPoint x="450" y="440" as="targetPoint" />
          </mxGeometry>
        </mxCell>
        <mxCell id="081VUppRDwUBQJAedWKf-51" value="1" style="text;html=1;align=center;verticalAlign=middle;resizable=0;points=[];autosize=1;" vertex="1" parent="1">
          <mxGeometry x="130" y="479" width="20" height="20" as="geometry" />
        </mxCell>
        <mxCell id="081VUppRDwUBQJAedWKf-52" value="0...*" style="text;html=1;align=center;verticalAlign=middle;resizable=0;points=[];autosize=1;" vertex="1" parent="1">
          <mxGeometry x="454" y="309" width="40" height="20" as="geometry" />
        </mxCell>
        <mxCell id="081VUppRDwUBQJAedWKf-53" style="edgeStyle=none;rounded=0;orthogonalLoop=1;jettySize=auto;html=1;startArrow=classic;startFill=1;endArrow=none;endFill=0;targetPerimeterSpacing=0;strokeColor=#000000;" edge="1" parent="1" source="081VUppRDwUBQJAedWKf-17">
          <mxGeometry relative="1" as="geometry">
            <mxPoint x="340" y="379" as="targetPoint" />
          </mxGeometry>
        </mxCell>
        <mxCell id="081VUppRDwUBQJAedWKf-17" value="Employé" style="swimlane;fontStyle=1;childLayout=stackLayout;horizontal=1;startSize=26;fillColor=#fff2cc;horizontalStack=0;resizeParent=1;resizeParentMax=0;resizeLast=0;collapsible=1;marginBottom=0;strokeColor=#d6b656;" vertex="1" parent="1">
          <mxGeometry x="40" y="340" width="150" height="78" as="geometry" />
        </mxCell>
        <mxCell id="081VUppRDwUBQJAedWKf-18" value="+ identifiant : String" style="text;strokeColor=none;fillColor=none;align=left;verticalAlign=top;spacingLeft=4;spacingRight=4;overflow=hidden;rotatable=0;points=[[0,0.5],[1,0.5]];portConstraint=eastwest;" vertex="1" parent="081VUppRDwUBQJAedWKf-17">
          <mxGeometry y="26" width="150" height="26" as="geometry" />
        </mxCell>
        <mxCell id="081VUppRDwUBQJAedWKf-19" value="+ fonction: String " style="text;strokeColor=none;fillColor=none;align=left;verticalAlign=top;spacingLeft=4;spacingRight=4;overflow=hidden;rotatable=0;points=[[0,0.5],[1,0.5]];portConstraint=eastwest;" vertex="1" parent="081VUppRDwUBQJAedWKf-17">
          <mxGeometry y="52" width="150" height="26" as="geometry" />
        </mxCell>
        <mxCell id="081VUppRDwUBQJAedWKf-55" value="1...*" style="text;html=1;align=center;verticalAlign=middle;resizable=0;points=[];autosize=1;" vertex="1" parent="1">
          <mxGeometry x="200" y="360" width="40" height="20" as="geometry" />
        </mxCell>
        <mxCell id="081VUppRDwUBQJAedWKf-57" style="edgeStyle=none;rounded=0;orthogonalLoop=1;jettySize=auto;html=1;startArrow=block;startFill=0;endArrow=none;endFill=0;targetPerimeterSpacing=0;strokeColor=#000000;entryX=0.5;entryY=0;entryDx=0;entryDy=0;" edge="1" parent="1" source="SpdqRZm_7HGaeXkHbd29-13" target="081VUppRDwUBQJAedWKf-17">
          <mxGeometry relative="1" as="geometry">
            <mxPoint x="150" y="337" as="targetPoint" />
            <Array as="points" />
          </mxGeometry>
        </mxCell>
      </root>
    </mxGraphModel>
  </diagram>
</mxfile>
